<svg height="512pt" viewBox="0 -22 512 511" width="512pt" xmlns="http://www.w3.org/2000/svg"><path d="m177.925781 468.238281c-28.6875 0-56.085937-5.378906-81.652343-16.058593-25.976563-10.851563-49.25-27-67.3125-46.699219l-28.710938-31.324219 42.003906 6.417969c39.332032 6.007812 64.554688 1.996093 79.859375-3.421875-12.273437-5.804688-27.261719-14.140625-42.449219-25.632813-47.402343-35.878906-74.179687-85.519531-77.433593-143.550781l-2.230469-39.816406 17.980469 18.398437c-2.914063-19.21875-3.421875-43.738281 2.480469-72.898437l9.367187-46.269532 11.292969 25.683594c2.621094-19.886718 9.203125-42.59375 24.171875-64.289062l19.511719-28.277344 7.417968 33.542969c8.292969 37.5 21.761719 68.65625 40.035156 92.601562 14.320313 18.765625 31.667969 33.21875 51.558594 42.960938 18.582032 9.101562 36.109375 12.421875 48.304688 13.554687-.601563-4.796875-.902344-9.640625-.902344-14.511718 0-64.023438 52.089844-116.113282 116.113281-116.113282 26.648438 0 52.683594 9.257813 73.304688 26.070313 18.003906 14.671875 31.242187 34.523437 37.894531 56.578125l53.46875 16.6875-48.558594 39.507812v6.449219c0 71.007813-28.167968 137.492187-79.320312 187.207031-49.472656 48.085938-116.757813 77.421875-189.460938 82.605469-5.625.398437-11.207031.597656-16.734375.597656zm0 0" fill="#00d7df"/><path d="m458.53125 135.183594c-6.652344-22.058594-19.890625-41.910156-37.894531-56.582032-20.621094-16.8125-46.65625-26.066406-73.308594-26.066406-37.019531 0-70.050781 17.417969-91.328125 44.488282v360.195312c48.742188-13.285156 92.9375-37.988281 128.121094-72.183594 51.152344-49.714844 79.320312-116.199218 79.320312-187.207031v-6.449219l48.558594-39.507812zm0 0" fill="#00aadf"/></svg>